<?xml version="1.0" encoding="UTF-8"?>
<svg id="Layer_1" data-name="Layer 1" xmlns="http://www.w3.org/2000/svg" xmlns:xlink="http://www.w3.org/1999/xlink" viewBox="0 0 1000.58 635.78">
  <defs>
    <style>
      .cls-1 {
        fill: url(#linear-gradient-8);
      }

      .cls-2 {
        fill: url(#linear-gradient-7);
      }

      .cls-3 {
        fill: url(#linear-gradient-5);
      }

      .cls-4 {
        fill: url(#linear-gradient-6);
      }

      .cls-5 {
        fill: url(#linear-gradient-9);
      }

      .cls-6 {
        fill: url(#linear-gradient-4);
      }

      .cls-7 {
        fill: url(#linear-gradient-3);
      }

      .cls-8 {
        fill: url(#linear-gradient-2);
      }

      .cls-9 {
        fill: url(#radial-gradient);
      }

      .cls-10 {
        fill: url(#linear-gradient);
      }

      .cls-11 {
        fill: url(#linear-gradient-10);
      }
    </style>
    <radialGradient id="radial-gradient" cx="500.29" cy="408.04" fx="500.29" fy="408.04" r="343.17" gradientTransform="translate(0 648.79) scale(1 -1)" gradientUnits="userSpaceOnUse">
      <stop offset="0" stop-color="#ba924a"/>
      <stop offset=".48" stop-color="#ffdf97"/>
      <stop offset="1" stop-color="#b18747"/>
    </radialGradient>
    <linearGradient id="linear-gradient" x1="18.55" y1="112.02" x2="78.28" y2="-4.74" gradientTransform="translate(0 648.79) scale(1 -1)" gradientUnits="userSpaceOnUse">
      <stop offset="0" stop-color="#d3b06a"/>
      <stop offset="1" stop-color="#b18747"/>
    </linearGradient>
    <linearGradient id="linear-gradient-2" x1="96.22" y1="65.21" x2="131.58" y2="53.2" gradientTransform="translate(0 648.79) scale(1 -1)" gradientUnits="userSpaceOnUse">
      <stop offset="0" stop-color="#d3b06a"/>
      <stop offset="1" stop-color="#b18747"/>
    </linearGradient>
    <linearGradient id="linear-gradient-3" x1="180.75" y1="110.88" x2="233.33" y2="25.59" gradientTransform="translate(0 648.79) scale(1 -1)" gradientUnits="userSpaceOnUse">
      <stop offset="0" stop-color="#d3b06a"/>
      <stop offset="1" stop-color="#b18747"/>
    </linearGradient>
    <linearGradient id="linear-gradient-4" x1="259.2" y1="104.87" x2="315.01" y2="-4.85" gradientTransform="translate(0 648.79) scale(1 -1)" gradientUnits="userSpaceOnUse">
      <stop offset="0" stop-color="#d3b06a"/>
      <stop offset="1" stop-color="#b18747"/>
    </linearGradient>
    <linearGradient id="linear-gradient-5" x1="399.14" y1="110.66" x2="450.36" y2="7.57" gradientTransform="translate(0 648.79) scale(1 -1)" gradientUnits="userSpaceOnUse">
      <stop offset="0" stop-color="#d3b06a"/>
      <stop offset="1" stop-color="#b18747"/>
    </linearGradient>
    <linearGradient id="linear-gradient-6" x1="514.51" y1="107.41" x2="564.61" y2="8.04" gradientTransform="translate(0 648.79) scale(1 -1)" gradientUnits="userSpaceOnUse">
      <stop offset="0" stop-color="#d3b06a"/>
      <stop offset="1" stop-color="#b18747"/>
    </linearGradient>
    <linearGradient id="linear-gradient-7" x1="610.59" y1="65.52" x2="645.79" y2="53.51" gradientTransform="translate(0 648.79) scale(1 -1)" gradientUnits="userSpaceOnUse">
      <stop offset="0" stop-color="#d3b06a"/>
      <stop offset="1" stop-color="#b18747"/>
    </linearGradient>
    <linearGradient id="linear-gradient-8" x1="693.06" y1="105.44" x2="749.78" y2="4" gradientTransform="translate(0 648.79) scale(1 -1)" gradientUnits="userSpaceOnUse">
      <stop offset="0" stop-color="#d3b06a"/>
      <stop offset="1" stop-color="#b18747"/>
    </linearGradient>
    <linearGradient id="linear-gradient-9" x1="822.09" y1="113.2" x2="877.57" y2="5.55" gradientTransform="translate(0 648.79) scale(1 -1)" gradientUnits="userSpaceOnUse">
      <stop offset="0" stop-color="#d3b06a"/>
      <stop offset="1" stop-color="#b18747"/>
    </linearGradient>
    <linearGradient id="linear-gradient-10" x1="942.32" y1="107.58" x2="994.08" y2="8.63" gradientTransform="translate(0 648.79) scale(1 -1)" gradientUnits="userSpaceOnUse">
      <stop offset="0" stop-color="#d3b06a"/>
      <stop offset="1" stop-color="#b18747"/>
    </linearGradient>
  </defs>
  <path class="cls-9" d="M703.61,226.61l-88.07,103.72,100.82,115.73h-296.12l217-246.81L502.75,0l-143.14,222.18-36.68-21.41L78.9,481.49l182.88-.08,68.19-85.58,90.3-.25-69.15,85.87,570.55-.25-218.28-254.6h.21ZM246.5,445.76l-89.48.25,173.82-202.51,36.85,28.44L503.33,58.92l27.12,43.97-62.85,154.81,40.95-27.87,21.9,38.67-83.97,95.64-135.06.41-64.92,81.19h0ZM754.12,445.76l-91.75-116.51,39.96-48.53,146.74,165.04h-94.94Z"/>
  <g>
    <path class="cls-10" d="M0,546.26v15.57h26.17v73.24h13.62v-73.24h26.29v-15.57H0Z"/>
    <path class="cls-8" d="M108.89,546.26v88.81h16.4v-88.81h-16.4Z"/>
    <path class="cls-7" d="M167.19,546.26v14.2h25.46v74.61h15.65v-74.61h25.59v-14.2h-66.7Z"/>
    <path class="cls-6" d="M311.36,546.26h-19.79l-36.97,88.81h17.64l8.45-18.55h42.81l7.91,18.55h17.27l-37.31-88.81ZM284.08,602.32l17.47-39.29,16.6,39.29h-34.08Z"/>
    <path class="cls-3" d="M446.01,545.02v62.89l-43.43-62.89h-16.52v88.81h18.92v-60.08l41.69,60.08h16.52v-88.81h-17.18Z"/>
    <path class="cls-4" d="M563.18,605.47c11.68-5.18,16.85-16.27,16.85-29.89,0-20.04-11.84-30.93-35.81-30.93h-36.19v88.81h14.33v-24.39h21.86c1.9,0,3.89-.12,5.67-.37l14.08,24.76h18.63l-19.42-27.99ZM544.63,594.49h-22.28v-35.94h22.28c14.08,0,19.87,7.87,19.87,17.97,0,10.93-5.55,17.97-19.87,17.97Z"/>
    <path class="cls-2" d="M623.22,546.26v88.81h18.09v-88.81h-18.09Z"/>
    <path class="cls-1" d="M727.56,546.26h-39.71v87.53h37.39c30.8,0,42.32-24.8,42.32-44.26,0-22.9-15.44-43.27-40-43.27ZM723.87,618.43h-19.5v-57.43h21.74c18.96,0,27.29,17.35,27.29,30.6,0,15.15-9.27,26.83-29.52,26.83h0Z"/>
    <path class="cls-5" d="M851.36,586.42v13.42h20.62v15.15c-6.09,4.1-12.59,5.96-22.11,5.96-20.08,0-29.23-15.94-29.23-30.68,0-16.93,10.89-31.26,28.86-31.26,10.72,0,18.14,4.43,24.22,9.98l10.1-13.29c-9.03-8.16-18.59-11.51-33.66-11.51-30.06,0-44.63,23.72-44.63,46.33s14.82,45.26,44.34,45.26c17.22,0,28.9-6.62,34.61-13.37v-35.98h-33.12Z"/>
    <path class="cls-11" d="M950.73,619.96v-22.94h44.14v-13.95h-44.14v-23.97h47.95v-14.33h-62.52v88.81h64.43v-13.62h-49.85Z"/>
  </g>
</svg>