<svg xmlns="http://www.w3.org/2000/svg" viewBox="0 0 1000.58 481.49">
  <defs>
    <radialGradient id="rg" cx="500.29" cy="240.75" r="343.17" gradientUnits="userSpaceOnUse">
      <stop offset="0" stop-color="#ba924a"/>
      <stop offset=".48" stop-color="#ffdf97"/>
      <stop offset="1" stop-color="#b18747"/>
    </radialGradient>
  </defs>
  <path d="M703.61,226.61l-88.07,103.72,100.82,115.73h-296.12l217-246.81L502.75,0l-143.14,222.18-36.68-21.41L78.9,481.49l182.88-.08,68.19-85.58,90.3-.25-69.15,85.87,570.55-.25-218.28-254.6h.21ZM246.5,445.76l-89.48.25,173.82-202.51,36.85,28.44L503.33,58.92l27.12,43.97-62.85,154.81,40.95-27.87,21.9,38.67-83.97,95.64-135.06.41-64.92,81.19h0ZM754.12,445.76l-91.75-116.51,39.96-48.53,146.74,165.04h-94.94Z" fill="url(#rg)"/>
</svg>
